<svg width="51" height="33" viewBox="0 0 51 33" fill="none" xmlns="http://www.w3.org/2000/svg">
<g clip-path="url(#clip0_57992_659)">
<g style="mix-blend-mode:multiply">
<path fill-rule="evenodd" clip-rule="evenodd" d="M25.5 30.9172C28.0005 32.2418 30.9036 33 34 33C43.3889 33 51 26.0296 51 17.4312C51 15.213 50.4935 13.1033 49.5807 11.1935C49.6138 11.0622 49.6294 10.9226 49.6244 10.7767L49.3048 1.40022C49.2643 0.213013 47.9199 -0.42221 47.0092 0.315532L42.5171 3.95422C40.0128 2.62394 37.1035 1.86232 34 1.86232C33.4342 1.86232 32.8748 1.88764 32.3231 1.93711L32.6244 10.7767C32.6294 10.9226 32.6138 11.0622 32.5807 11.1935C33.4935 13.1033 34 15.213 34 17.4312C34 23.1938 30.5814 28.2252 25.5 30.9172ZM25.5808 3.90266C25.5538 3.91676 25.5269 3.93093 25.5 3.94516C25.5057 3.94817 25.5114 3.95119 25.5171 3.95422L25.5808 3.90266ZM25.4193 3.90264C23.3957 2.84413 21.1117 2.15544 18.677 1.93711L18.6953 1.40022C18.7358 0.213013 20.0802 -0.42221 20.9909 0.315532L25.4193 3.90264Z" fill="#FFCAE0"/>
</g>
<path fill-rule="evenodd" clip-rule="evenodd" d="M1.69526 1.40022C1.73573 0.213013 3.08011 -0.42221 3.99087 0.315532L8.48291 3.95422C10.9872 2.62394 13.8965 1.86232 17 1.86232C17.5659 1.86232 18.1253 1.88764 18.677 1.93711L18.3756 10.7767C18.3707 10.9226 18.3863 11.0622 18.4194 11.1936C17.5065 13.1033 17 15.213 17 17.4312C17 23.1938 20.4187 28.2252 25.5 30.9172C22.9995 32.2418 20.0964 33 17 33C7.61116 33 0 26.0296 0 17.4312C0 15.213 0.506499 13.1033 1.41936 11.1936C1.38627 11.0622 1.37066 10.9226 1.37563 10.7767L1.69526 1.40022ZM32.323 1.93711L32.3047 1.40022C32.2643 0.213013 30.9199 -0.42221 30.0091 0.315532L25.5807 3.90266C27.6043 2.84413 29.8884 2.15544 32.323 1.93711ZM25.5 3.94516C25.4731 3.93092 25.4462 3.91675 25.4192 3.90264L25.4829 3.95422C25.4886 3.9512 25.4943 3.94817 25.5 3.94516Z" fill="#80BEEC"/>
<g style="mix-blend-mode:multiply">
<path fill-rule="evenodd" clip-rule="evenodd" d="M18.677 1.93713L18.3756 10.7767C18.3707 10.9226 18.3863 11.0622 18.4194 11.1936C17.5065 13.1033 17 15.2131 17 17.4312C17 23.1938 20.4187 28.2253 25.5 30.9172C30.5813 28.2253 34 23.1938 34 17.4312C34 15.2131 33.4935 13.1033 32.5806 11.1936C32.6137 11.0622 32.6293 10.9226 32.6244 10.7767L32.323 1.93713C29.8884 2.15546 27.6043 2.84415 25.5807 3.90268L25.5171 3.95424C25.5114 3.95121 25.5057 3.94819 25.5 3.94518C25.4943 3.9482 25.4886 3.95122 25.4829 3.95424L25.4192 3.90266C23.3956 2.84415 21.1116 2.15546 18.677 1.93713Z" fill="#8097CF"/>
</g>
</g>
<defs>
<clipPath id="clip0_57992_659">
<rect width="51" height="33" fill="white"/>
</clipPath>
</defs>
</svg>
