<svg width="51" height="33" viewBox="0 0 51 33" fill="none" xmlns="http://www.w3.org/2000/svg">
<g clip-path="url(#clip0_57822_2165)">
<path d="M34 17.4312C34 26.0296 26.3888 33 17 33C7.61116 33 0 26.0296 0 17.4312C0 8.83273 7.61116 1.86232 17 1.86232C26.3888 1.86232 34 8.83273 34 17.4312Z" fill="#80BEEC"/>
<path d="M1.69526 1.40022C1.73573 0.213013 3.08011 -0.42221 3.99087 0.315532L11.184 6.14219C12.0114 6.81243 11.8569 8.13916 10.8986 8.59195L3.3858 12.1418C2.42752 12.5946 1.33886 11.8553 1.37563 10.7767L1.69526 1.40022Z" fill="#80BEEC"/>
<path d="M32.3047 1.40022C32.2643 0.213013 30.9199 -0.42221 30.0091 0.315532L22.816 6.14219C21.9885 6.81243 22.1431 8.13916 23.1014 8.59195L30.6142 12.1418C31.5725 12.5946 32.6611 11.8553 32.6244 10.7767L32.3047 1.40022Z" fill="#80BEEC"/>
<g style="mix-blend-mode:multiply">
<path d="M51 17.4312C51 26.0296 43.3888 33 34 33C24.6112 33 17 26.0296 17 17.4312C17 8.83273 24.6112 1.86232 34 1.86232C43.3888 1.86232 51 8.83273 51 17.4312Z" fill="#FFCAE0"/>
<path d="M18.6953 1.40022C18.7357 0.213013 20.0801 -0.42221 20.9909 0.315532L28.184 6.14219C29.0114 6.81243 28.8569 8.13916 27.8986 8.59195L20.3858 12.1418C19.4275 12.5946 18.3389 11.8553 18.3756 10.7767L18.6953 1.40022Z" fill="#FFCAE0"/>
<path d="M49.3047 1.40022C49.2643 0.213013 47.9199 -0.42221 47.0091 0.315532L39.816 6.14219C38.9885 6.81243 39.1431 8.13916 40.1014 8.59195L47.6142 12.1418C48.5725 12.5946 49.6611 11.8553 49.6244 10.7767L49.3047 1.40022Z" fill="#FFCAE0"/>
</g>
</g>
<defs>
<clipPath id="clip0_57822_2165">
<rect width="51" height="33" fill="white"/>
</clipPath>
</defs>
</svg>
